<?xml version="1.0" standalone="no"?>
<!DOCTYPE svg PUBLIC "-//W3C//DTD SVG 20010904//EN"
 "http://www.w3.org/TR/2001/REC-SVG-20010904/DTD/svg10.dtd">
<svg version="1.0" xmlns="http://www.w3.org/2000/svg"
 width="640.000000pt" height="640.000000pt" viewBox="0 0 640.000000 640.000000"
 preserveAspectRatio="xMidYMid meet">

<g transform="translate(0.000000,640.000000) scale(0.100000,-0.100000)"
fill="#000000" stroke="none">
<path d="M0 3200 l0 -3200 3200 0 3200 0 0 3200 0 3200 -3200 0 -3200 0 0
-3200z m5768 1253 l3 -93 -766 0 -765 0 0 -710 0 -710 488 -2 487 -3 0 -85 0
-85 -487 -3 -488 -2 0 -454 0 -455 -91 -3 c-50 -2 -93 -1 -95 1 -7 7 -4 2687
2 2694 4 4 390 6 858 4 l851 -2 3 -92z m-3532 72 c300 -52 563 -203 776 -445
93 -106 92 -100 18 -175 l-63 -63 -42 56 c-80 109 -237 242 -375 320 -263 147
-646 178 -933 75 -174 -62 -316 -151 -443 -278 -158 -158 -259 -333 -314 -550
-30 -116 -38 -340 -16 -465 44 -250 156 -460 339 -637 203 -194 427 -298 705
-325 228 -22 455 24 648 130 137 75 279 192 371 304 l56 69 65 -64 65 -65 -34
-44 c-141 -181 -358 -346 -562 -427 -42 -17 -122 -43 -179 -58 -96 -26 -116
-27 -313 -28 -140 0 -230 4 -270 13 -379 85 -682 290 -881 598 -95 148 -168
334 -196 504 -18 109 -15 366 6 472 69 358 284 682 581 879 81 54 247 134 331
160 190 59 466 77 660 44z"/>
</g>
</svg>
